<svg width="89" height="104" viewBox="0 0 89 104" fill="none" xmlns="http://www.w3.org/2000/svg">
<g clip-path="url(#clip0_18_18)">
<path fill-rule="evenodd" clip-rule="evenodd" d="M72.2697 39C71.1639 39 70.1034 38.4864 69.3215 37.5721C68.5396 36.6579 68.1003 35.4179 68.1003 34.125V24.375H59.7615C58.6557 24.375 57.5952 23.8614 56.8133 22.9471C56.0314 22.0329 55.5921 20.7929 55.5921 19.5C55.5921 18.2071 56.0314 16.9671 56.8133 16.0529C57.5952 15.1386 58.6557 14.625 59.7615 14.625H68.1003V4.875C68.1003 3.58207 68.5396 2.34209 69.3215 1.42785C70.1034 0.513615 71.1639 0 72.2697 0C73.3755 0 74.436 0.513615 75.2179 1.42785C75.9999 2.34209 76.4391 3.58207 76.4391 4.875V14.625H84.778C85.8838 14.625 86.9443 15.1386 87.7262 16.0529C88.5081 16.9671 88.9474 18.2071 88.9474 19.5C88.9474 20.7929 88.5081 22.0329 87.7262 22.9471C86.9443 23.8614 85.8838 24.375 84.778 24.375H76.4391V34.125C76.4391 35.4179 75.9999 36.6579 75.2179 37.5721C74.436 38.4864 73.3755 39 72.2697 39ZM16.6776 87.75C15.9404 87.75 15.2334 87.4076 14.7121 86.7981C14.1909 86.1886 13.898 85.362 13.898 84.5V19.5C13.898 18.638 14.1909 17.8114 14.7121 17.2019C15.2334 16.5924 15.9404 16.25 16.6776 16.25H40.3043C41.4101 16.25 42.4706 15.7364 43.2525 14.8221C44.0344 13.9079 44.4737 12.6679 44.4737 11.375C44.4737 10.0821 44.0344 8.84209 43.2525 7.92785C42.4706 7.01361 41.4101 6.5 40.3043 6.5H16.6776C13.7288 6.5 10.9008 7.86964 8.81571 10.3076C6.73061 12.7456 5.5592 16.0522 5.5592 19.5V84.5C5.5592 87.9478 6.73061 91.2544 8.81571 93.6924C10.9008 96.1304 13.7288 97.5 16.6776 97.5H72.2697C75.2185 97.5 78.0465 96.1304 80.1316 93.6924C82.2168 91.2544 83.3882 87.9478 83.3882 84.5V56.875C83.3882 55.5821 82.9489 54.3421 82.167 53.4279C81.385 52.5136 80.3245 52 79.2187 52C78.113 52 77.0524 52.5136 76.2705 53.4279C75.4886 54.3421 75.0493 55.5821 75.0493 56.875V84.5C75.0493 85.362 74.7565 86.1886 74.2352 86.7981C73.7139 87.4076 73.0069 87.75 72.2697 87.75H16.6776Z" fill="#9C9AFA"/>
</g>
<defs>
<clipPath id="clip0_18_18">
<rect width="88.9474" height="104" fill="white"/>
</clipPath>
</defs>
</svg>
